<svg width="305" height="207" viewBox="0 0 305 207" fill="none" xmlns="http://www.w3.org/2000/svg">
<g clip-path="url(#clip0_113_15)" filter="url(#filter0_d_113_15)">
<path d="M281.29 0.239243H58.7141V183.11H281.29V0.239243Z" fill="white"/>
<path d="M281.29 183.35H58.7142C58.583 183.35 58.4757 183.242 58.4757 183.11V0.239235C58.4757 0.106568 58.5819 0 58.7142 0H281.29C281.421 0 281.528 0.106568 281.528 0.239235V183.11C281.528 183.242 281.422 183.35 281.29 183.35ZM58.9526 182.871H281.051V0.47847H58.9526V182.871Z" fill="black"/>
<path d="M199.197 9.34975H137.006V60.9614H199.197V9.34975Z" fill="#E2EAFF"/>
<path d="M128.618 61.2017H126.233C126.102 61.2017 125.995 61.0952 125.995 60.9625C125.995 60.8298 126.101 60.7233 126.233 60.7233H128.618C128.749 60.7233 128.856 60.8298 128.856 60.9625C128.856 61.0952 128.75 61.2017 128.618 61.2017ZM123.85 61.2017H121.465C121.334 61.2017 121.227 61.0952 121.227 60.9625C121.227 60.8298 121.333 60.7233 121.465 60.7233H123.85C123.981 60.7233 124.088 60.8298 124.088 60.9625C124.088 61.0952 123.982 61.2017 123.85 61.2017ZM119.082 61.2017H116.697C116.566 61.2017 116.459 61.0952 116.459 60.9625C116.459 60.8298 116.565 60.7233 116.697 60.7233H119.082C119.213 60.7233 119.32 60.8298 119.32 60.9625C119.32 61.0952 119.214 61.2017 119.082 61.2017ZM114.314 61.2017H111.929C111.798 61.2017 111.691 61.0952 111.691 60.9625C111.691 60.8298 111.797 60.7233 111.929 60.7233H114.314C114.445 60.7233 114.552 60.8298 114.552 60.9625C114.552 61.0952 114.446 61.2017 114.314 61.2017ZM109.546 61.2017H107.161C107.03 61.2017 106.923 61.0952 106.923 60.9625C106.923 60.8298 107.029 60.7233 107.161 60.7233H109.546C109.677 60.7233 109.784 60.8298 109.784 60.9625C109.784 61.0952 109.678 61.2017 109.546 61.2017ZM104.778 61.2017H102.393C102.262 61.2017 102.155 61.0952 102.155 60.9625C102.155 60.8298 102.261 60.7233 102.393 60.7233H104.778C104.909 60.7233 105.016 60.8298 105.016 60.9625C105.016 61.0952 104.91 61.2017 104.778 61.2017ZM100.01 61.2017H97.6254C97.4942 61.2017 97.3869 61.0952 97.3869 60.9625C97.3869 60.8298 97.4932 60.7233 97.6254 60.7233H100.01C100.141 60.7233 100.248 60.8298 100.248 60.9625C100.248 61.0952 100.142 61.2017 100.01 61.2017ZM95.2419 61.2017H92.8574C92.7263 61.2017 92.619 61.0952 92.619 60.9625C92.619 60.8298 92.7252 60.7233 92.8574 60.7233H95.2419C95.3731 60.7233 95.4804 60.8298 95.4804 60.9625C95.4804 61.0952 95.3742 61.2017 95.2419 61.2017ZM90.474 61.2017H88.0894C87.9583 61.2017 87.851 61.0952 87.851 60.9625C87.851 60.8298 87.9572 60.7233 88.0894 60.7233H90.474C90.6051 60.7233 90.7124 60.8298 90.7124 60.9625C90.7124 61.0952 90.6062 61.2017 90.474 61.2017ZM85.706 61.2017H83.3214C83.1903 61.2017 83.083 61.0952 83.083 60.9625C83.083 60.8298 83.1892 60.7233 83.3214 60.7233H85.706C85.8371 60.7233 85.9444 60.8298 85.9444 60.9625C85.9444 61.0952 85.8382 61.2017 85.706 61.2017ZM80.938 61.2017H78.5535C78.4223 61.2017 78.315 61.0952 78.315 60.9625C78.315 60.8298 78.4212 60.7233 78.5535 60.7233H80.938C81.0692 60.7233 81.1764 60.8298 81.1764 60.9625C81.1764 61.0952 81.0702 61.2017 80.938 61.2017ZM76.17 61.2017H73.7855C73.6543 61.2017 73.547 61.0952 73.547 60.9625C73.547 60.8298 73.6532 60.7233 73.7855 60.7233H76.17C76.3012 60.7233 76.4085 60.8298 76.4085 60.9625C76.4085 61.0952 76.3022 61.2017 76.17 61.2017ZM71.402 61.2017H69.0175C68.8864 61.2017 68.779 61.0952 68.779 60.9625C68.779 60.8298 68.8853 60.7233 69.0175 60.7233H71.402C71.5332 60.7233 71.6405 60.8298 71.6405 60.9625C71.6405 61.0952 71.5343 61.2017 71.402 61.2017ZM66.6341 61.2017H66.4281C66.297 61.2017 66.1897 61.0952 66.1897 60.9625V58.7779C66.1897 58.6452 66.2959 58.5386 66.4281 58.5386C66.5603 58.5386 66.6666 58.6452 66.6666 58.7779V60.7255C66.7836 60.7418 66.8725 60.8418 66.8725 60.9625C66.8725 61.0952 66.7663 61.2017 66.6341 61.2017ZM128.618 60.4123C128.487 60.4123 128.379 60.3057 128.379 60.173V57.7807C128.379 57.648 128.486 57.5415 128.618 57.5415C128.75 57.5415 128.856 57.648 128.856 57.7807V60.173C128.856 60.3057 128.75 60.4123 128.618 60.4123ZM66.427 56.6247C66.2959 56.6247 66.1886 56.5182 66.1886 56.3855V53.9932C66.1886 53.8605 66.2948 53.7539 66.427 53.7539C66.5593 53.7539 66.6655 53.8605 66.6655 53.9932V56.3855C66.6655 56.5182 66.5593 56.6247 66.427 56.6247ZM128.618 55.6287C128.487 55.6287 128.379 55.5221 128.379 55.3894V52.9971C128.379 52.8644 128.486 52.7578 128.618 52.7578C128.75 52.7578 128.856 52.8644 128.856 52.9971V55.3894C128.856 55.5221 128.75 55.6287 128.618 55.6287ZM66.427 51.8411C66.2959 51.8411 66.1886 51.7346 66.1886 51.6019V49.2095C66.1886 49.0769 66.2948 48.9703 66.427 48.9703C66.5593 48.9703 66.6655 49.0769 66.6655 49.2095V51.6019C66.6655 51.7346 66.5593 51.8411 66.427 51.8411ZM128.618 50.845C128.487 50.845 128.379 50.7385 128.379 50.6058V48.2135C128.379 48.0808 128.486 47.9742 128.618 47.9742C128.75 47.9742 128.856 48.0808 128.856 48.2135V50.6058C128.856 50.7385 128.75 50.845 128.618 50.845ZM66.427 47.0575C66.2959 47.0575 66.1886 46.951 66.1886 46.8183V44.4259C66.1886 44.2933 66.2948 44.1867 66.427 44.1867C66.5593 44.1867 66.6655 44.2933 66.6655 44.4259V46.8183C66.6655 46.951 66.5593 47.0575 66.427 47.0575ZM128.618 46.0603C128.487 46.0603 128.379 45.9538 128.379 45.8211V43.4288C128.379 43.2961 128.486 43.1895 128.618 43.1895C128.75 43.1895 128.856 43.2961 128.856 43.4288V45.8211C128.856 45.9538 128.75 46.0603 128.618 46.0603ZM66.427 42.2739C66.2959 42.2739 66.1886 42.1673 66.1886 42.0347V39.6423C66.1886 39.5097 66.2948 39.4031 66.427 39.4031C66.5593 39.4031 66.6655 39.5097 66.6655 39.6423V42.0347C66.6655 42.1673 66.5593 42.2739 66.427 42.2739ZM128.618 41.2767C128.487 41.2767 128.379 41.1702 128.379 41.0375V38.6452C128.379 38.5125 128.486 38.4059 128.618 38.4059C128.75 38.4059 128.856 38.5125 128.856 38.6452V41.0375C128.856 41.1702 128.75 41.2767 128.618 41.2767ZM66.427 37.4903C66.2959 37.4903 66.1886 37.3837 66.1886 37.2511V34.8587C66.1886 34.726 66.2948 34.6195 66.427 34.6195C66.5593 34.6195 66.6655 34.726 66.6655 34.8587V37.2511C66.6655 37.3837 66.5593 37.4903 66.427 37.4903ZM128.618 36.4931C128.487 36.4931 128.379 36.3866 128.379 36.2539V33.8615C128.379 33.7289 128.486 33.6223 128.618 33.6223C128.75 33.6223 128.856 33.7289 128.856 33.8615V36.2539C128.856 36.3866 128.75 36.4931 128.618 36.4931ZM66.427 32.7067C66.2959 32.7067 66.1886 32.6001 66.1886 32.4675V30.0751C66.1886 29.9424 66.2948 29.8359 66.427 29.8359C66.5593 29.8359 66.6655 29.9424 66.6655 30.0751V32.4675C66.6655 32.6001 66.5593 32.7067 66.427 32.7067ZM128.618 31.7095C128.487 31.7095 128.379 31.6029 128.379 31.4703V29.0779C128.379 28.9453 128.486 28.8387 128.618 28.8387C128.75 28.8387 128.856 28.9453 128.856 29.0779V31.4703C128.856 31.6029 128.75 31.7095 128.618 31.7095ZM66.427 27.9231C66.2959 27.9231 66.1886 27.8165 66.1886 27.6838V25.2915C66.1886 25.1588 66.2948 25.0523 66.427 25.0523C66.5593 25.0523 66.6655 25.1588 66.6655 25.2915V27.6838C66.6655 27.8165 66.5593 27.9231 66.427 27.9231ZM128.618 26.9259C128.487 26.9259 128.379 26.8193 128.379 26.6867V24.2943C128.379 24.1616 128.486 24.0551 128.618 24.0551C128.75 24.0551 128.856 24.1616 128.856 24.2943V26.6867C128.856 26.8193 128.75 26.9259 128.618 26.9259ZM66.427 23.1395C66.2959 23.1395 66.1886 23.0329 66.1886 22.9002V20.5079C66.1886 20.3752 66.2948 20.2686 66.427 20.2686C66.5593 20.2686 66.6655 20.3752 66.6655 20.5079V22.9002C66.6655 23.0329 66.5593 23.1395 66.427 23.1395ZM128.618 22.1423C128.487 22.1423 128.379 22.0357 128.379 21.9031V19.5107C128.379 19.378 128.486 19.2715 128.618 19.2715C128.75 19.2715 128.856 19.378 128.856 19.5107V21.9031C128.856 22.0357 128.75 22.1423 128.618 22.1423ZM66.427 18.3558C66.2959 18.3558 66.1886 18.2493 66.1886 18.1166V15.7243C66.1886 15.5916 66.2948 15.485 66.427 15.485C66.5593 15.485 66.6655 15.5916 66.6655 15.7243V18.1166C66.6655 18.2493 66.5593 18.3558 66.427 18.3558ZM128.618 17.3587C128.487 17.3587 128.379 17.2521 128.379 17.1194V14.7271C128.379 14.5944 128.486 14.4879 128.618 14.4879C128.75 14.4879 128.856 14.5944 128.856 14.7271V17.1194C128.856 17.2521 128.75 17.3587 128.618 17.3587ZM66.427 13.5722C66.2959 13.5722 66.1886 13.4657 66.1886 13.333V10.9407C66.1886 10.808 66.2948 10.7014 66.427 10.7014C66.5593 10.7014 66.6655 10.808 66.6655 10.9407V13.333C66.6655 13.4657 66.5593 13.5722 66.427 13.5722ZM128.618 12.5751C128.487 12.5751 128.379 12.4685 128.379 12.3358V9.94348C128.379 9.81081 128.486 9.70424 128.618 9.70424C128.75 9.70424 128.856 9.81081 128.856 9.94348V12.3358C128.856 12.4685 128.75 12.5751 128.618 12.5751ZM126.826 9.58897H124.442C124.31 9.58897 124.203 9.48241 124.203 9.34974C124.203 9.21707 124.309 9.1105 124.442 9.1105H126.826C126.957 9.1105 127.065 9.21707 127.065 9.34974C127.065 9.48241 126.958 9.58897 126.826 9.58897ZM122.058 9.58897H119.674C119.542 9.58897 119.435 9.48241 119.435 9.34974C119.435 9.21707 119.541 9.1105 119.674 9.1105H122.058C122.189 9.1105 122.297 9.21707 122.297 9.34974C122.297 9.48241 122.19 9.58897 122.058 9.58897ZM117.29 9.58897H114.906C114.775 9.58897 114.667 9.48241 114.667 9.34974C114.667 9.21707 114.773 9.1105 114.906 9.1105H117.29C117.421 9.1105 117.529 9.21707 117.529 9.34974C117.529 9.48241 117.422 9.58897 117.29 9.58897ZM112.522 9.58897H110.138C110.007 9.58897 109.899 9.48241 109.899 9.34974C109.899 9.21707 110.005 9.1105 110.138 9.1105H112.522C112.653 9.1105 112.761 9.21707 112.761 9.34974C112.761 9.48241 112.654 9.58897 112.522 9.58897ZM107.754 9.58897H105.37C105.239 9.58897 105.131 9.48241 105.131 9.34974C105.131 9.21707 105.237 9.1105 105.37 9.1105H107.754C107.885 9.1105 107.993 9.21707 107.993 9.34974C107.993 9.48241 107.886 9.58897 107.754 9.58897ZM102.986 9.58897H100.602C100.471 9.58897 100.363 9.48241 100.363 9.34974C100.363 9.21707 100.469 9.1105 100.602 9.1105H102.986C103.117 9.1105 103.225 9.21707 103.225 9.34974C103.225 9.48241 103.118 9.58897 102.986 9.58897ZM98.2183 9.58897H95.8337C95.7026 9.58897 95.5953 9.48241 95.5953 9.34974C95.5953 9.21707 95.7015 9.1105 95.8337 9.1105H98.2183C98.3494 9.1105 98.4567 9.21707 98.4567 9.34974C98.4567 9.48241 98.3505 9.58897 98.2183 9.58897ZM93.4503 9.58897H91.0658C90.9346 9.58897 90.8273 9.48241 90.8273 9.34974C90.8273 9.21707 90.9335 9.1105 91.0658 9.1105H93.4503C93.5814 9.1105 93.6887 9.21707 93.6887 9.34974C93.6887 9.48241 93.5825 9.58897 93.4503 9.58897ZM88.6823 9.58897H86.2978C86.1666 9.58897 86.0593 9.48241 86.0593 9.34974C86.0593 9.21707 86.1655 9.1105 86.2978 9.1105H88.6823C88.8135 9.1105 88.9208 9.21707 88.9208 9.34974C88.9208 9.48241 88.8145 9.58897 88.6823 9.58897ZM83.9143 9.58897H81.5298C81.3986 9.58897 81.2913 9.48241 81.2913 9.34974C81.2913 9.21707 81.3976 9.1105 81.5298 9.1105H83.9143C84.0455 9.1105 84.1528 9.21707 84.1528 9.34974C84.1528 9.48241 84.0466 9.58897 83.9143 9.58897ZM79.1463 9.58897H76.7618C76.6307 9.58897 76.5234 9.48241 76.5234 9.34974C76.5234 9.21707 76.6296 9.1105 76.7618 9.1105H79.1463C79.2775 9.1105 79.3848 9.21707 79.3848 9.34974C79.3848 9.48241 79.2786 9.58897 79.1463 9.58897ZM74.3784 9.58897H71.9938C71.8627 9.58897 71.7554 9.48241 71.7554 9.34974C71.7554 9.21707 71.8616 9.1105 71.9938 9.1105H74.3784C74.5095 9.1105 74.6168 9.21707 74.6168 9.34974C74.6168 9.48241 74.5106 9.58897 74.3784 9.58897ZM69.6104 9.58897H67.2259C67.0947 9.58897 66.9874 9.48241 66.9874 9.34974C66.9874 9.21707 67.0936 9.1105 67.2259 9.1105H69.6104C69.7415 9.1105 69.8488 9.21707 69.8488 9.34974C69.8488 9.48241 69.7426 9.58897 69.6104 9.58897Z" fill="black"/>
<path d="M199.197 68.7605H137.006V175.477H199.197V68.7605Z" fill="white"/>
<path d="M199.197 175.717H137.006C136.875 175.717 136.768 175.61 136.768 175.478V68.7616C136.768 68.6289 136.874 68.5223 137.006 68.5223H199.197C199.328 68.5223 199.435 68.6289 199.435 68.7616V175.478C199.435 175.61 199.329 175.717 199.197 175.717ZM137.244 175.239H198.958V69.0008H137.244V175.239Z" fill="black"/>
<path d="M128.618 68.7605H66.427V175.477H128.618V68.7605Z" fill="white"/>
<path d="M128.618 175.717H66.427C66.2959 175.717 66.1886 175.61 66.1886 175.478V68.7616C66.1886 68.6289 66.2948 68.5223 66.427 68.5223H128.618C128.749 68.5223 128.856 68.6289 128.856 68.7616V175.478C128.856 175.61 128.75 175.717 128.618 175.717ZM66.6655 175.239H128.379V69.0008H66.6655V175.239Z" fill="black"/>
<path d="M269.37 68.7605H207.179V175.477H269.37V68.7605Z" fill="white"/>
<path d="M269.37 175.717H207.18C207.048 175.717 206.941 175.61 206.941 175.478V68.7616C206.941 68.6289 207.047 68.5223 207.18 68.5223H269.37C269.501 68.5223 269.609 68.6289 269.609 68.7616V175.478C269.609 175.61 269.503 175.717 269.37 175.717ZM207.418 175.239H269.132V69.0008H207.418V175.239Z" fill="black"/>
<path d="M269.37 9.34975H207.179V60.9614H269.37V9.34975Z" fill="#E2EAFF"/>
<path d="M188.095 87.075H148.108C144.757 87.075 142.041 84.3499 142.041 80.9876C142.041 77.6252 144.757 74.9001 148.108 74.9001H188.095C191.446 74.9001 194.162 77.6252 194.162 80.9876C194.162 84.3499 191.446 87.075 188.095 87.075Z" fill="#E2EAFF"/>
<path d="M188.095 126.276H148.108C144.757 126.276 142.041 123.551 142.041 120.188C142.041 116.826 144.757 114.101 148.108 114.101H188.095C191.446 114.101 194.162 116.826 194.162 120.188C194.162 123.551 191.446 126.276 188.095 126.276Z" fill="white"/>
<path d="M188.095 126.515H148.108C144.631 126.515 141.802 123.677 141.802 120.188C141.802 116.7 144.631 113.862 148.108 113.862H188.095C191.572 113.862 194.401 116.7 194.401 120.188C194.401 123.677 191.572 126.515 188.095 126.515ZM148.108 114.339C144.893 114.339 142.279 116.963 142.279 120.187C142.279 123.412 144.894 126.036 148.108 126.036H188.095C191.309 126.036 193.924 123.412 193.924 120.187C193.924 116.963 191.308 114.339 188.095 114.339H148.108Z" fill="black"/>
<path d="M188.095 145.808H148.108C144.757 145.808 142.041 143.083 142.041 139.721C142.041 136.359 144.757 133.633 148.108 133.633H188.095C191.446 133.633 194.162 136.359 194.162 139.721C194.162 143.083 191.446 145.808 188.095 145.808Z" fill="white"/>
<path d="M188.095 146.048H148.108C144.631 146.048 141.802 143.209 141.802 139.721C141.802 136.232 144.631 133.394 148.108 133.394H188.095C191.572 133.394 194.401 136.232 194.401 139.721C194.401 143.209 191.572 146.048 188.095 146.048ZM148.108 133.873C144.893 133.873 142.279 136.497 142.279 139.721C142.279 142.945 144.894 145.569 148.108 145.569H188.095C191.309 145.569 193.924 142.945 193.924 139.721C193.924 136.497 191.308 133.873 188.095 133.873H148.108Z" fill="black"/>
<path d="M188.095 106.216H148.108C144.757 106.216 142.041 103.491 142.041 100.129C142.041 96.7662 144.757 94.0411 148.108 94.0411H188.095C191.446 94.0411 194.162 96.7662 194.162 100.129C194.162 103.491 191.446 106.216 188.095 106.216Z" fill="#E2EAFF"/>
<path d="M117.516 87.2022H77.5292C74.1779 87.2022 71.4617 84.4771 71.4617 81.1148C71.4617 77.7524 74.1779 75.0273 77.5292 75.0273H117.516C120.867 75.0273 123.583 77.7524 123.583 81.1148C123.583 84.4771 120.867 87.2022 117.516 87.2022Z" fill="#1FACCA"/>
<path d="M117.516 106.342H77.5292C74.1779 106.342 71.4617 103.617 71.4617 100.255C71.4617 96.8923 74.1779 94.1672 77.5292 94.1672H117.516C120.867 94.1672 123.583 96.8923 123.583 100.255C123.583 103.617 120.867 106.342 117.516 106.342Z" fill="#1FACCA"/>
<path d="M117.516 126.276H77.5292C74.1778 126.276 71.4616 123.551 71.4616 120.188C71.4616 116.826 74.1778 114.101 77.5292 114.101H117.516C120.867 114.101 123.583 116.826 123.583 120.188C123.583 123.551 120.867 126.276 117.516 126.276Z" fill="white"/>
<path d="M117.516 126.515H77.5292C74.0521 126.515 71.2232 123.677 71.2232 120.188C71.2232 116.7 74.0521 113.862 77.5292 113.862H117.516C120.993 113.862 123.822 116.7 123.822 120.188C123.822 123.677 120.993 126.515 117.516 126.515ZM77.5292 114.339C74.3144 114.339 71.7001 116.963 71.7001 120.187C71.7001 123.412 74.3155 126.036 77.5292 126.036H117.516C120.73 126.036 123.345 123.412 123.345 120.187C123.345 116.963 120.729 114.339 117.516 114.339H77.5292Z" fill="black"/>
<path d="M258.268 86.5476H218.282C214.93 86.5476 212.214 83.8225 212.214 80.4602C212.214 77.0978 214.93 74.3727 218.282 74.3727H258.268C261.619 74.3727 264.336 77.0978 264.336 80.4602C264.336 83.8225 261.619 86.5476 258.268 86.5476Z" fill="white"/>
<path d="M258.268 86.7868H218.282C214.805 86.7868 211.976 83.9486 211.976 80.4602C211.976 76.9717 214.805 74.1335 218.282 74.1335H258.268C261.745 74.1335 264.574 76.9717 264.574 80.4602C264.574 83.9486 261.745 86.7868 258.268 86.7868ZM218.282 74.6109C215.067 74.6109 212.453 77.2348 212.453 80.4591C212.453 83.6833 215.068 86.3073 218.282 86.3073H258.268C261.483 86.3073 264.097 83.6833 264.097 80.4591C264.097 77.2348 261.482 74.6109 258.268 74.6109H218.282Z" fill="black"/>
<path d="M258.268 105.687H218.282C214.93 105.687 212.214 102.962 212.214 99.6C212.214 96.2377 214.93 93.5126 218.282 93.5126H258.268C261.619 93.5126 264.336 96.2377 264.336 99.6C264.336 102.962 261.619 105.687 258.268 105.687Z" fill="#E2EAFF"/>
<path d="M258.268 126.138H218.282C214.93 126.138 212.214 123.413 212.214 120.05C212.214 116.688 214.93 113.963 218.282 113.963H258.268C261.619 113.963 264.336 116.688 264.336 120.05C264.336 123.413 261.619 126.138 258.268 126.138Z" fill="#E2EAFF"/>
<path d="M287.364 92.8569L292.055 189.331C292.126 190.404 292.547 191.423 293.252 192.233L297.19 196.754C297.872 197.537 297.318 198.761 296.282 198.761H270.339C268.336 198.761 266.73 197.1 266.792 195.092L268.976 123.14L246.15 196.264C245.686 197.749 244.314 198.761 242.763 198.761H215.658C214.462 198.761 213.995 197.202 214.992 196.541L222.338 191.672C223.205 191.097 223.867 190.259 224.228 189.282L256.401 96.1855L287.364 92.8558V92.8569Z" fill="white"/>
<path d="M296.281 199H270.338C269.304 199 268.338 198.59 267.619 197.845C266.899 197.101 266.52 196.12 266.552 195.084L268.683 124.873L246.377 196.336C245.879 197.93 244.427 199 242.762 199H215.657C215.004 199 214.461 198.594 214.274 197.968C214.086 197.341 214.316 196.702 214.861 196.342L222.206 191.473C223.037 190.923 223.659 190.136 224.005 189.199L256.175 96.1083C256.206 96.0202 256.284 95.9582 256.375 95.9484L287.338 92.6187C287.404 92.6111 287.468 92.6318 287.518 92.6753C287.568 92.7177 287.598 92.7796 287.601 92.8449L292.292 189.32C292.359 190.33 292.764 191.311 293.43 192.076L297.368 196.598C297.745 197.032 297.833 197.627 297.596 198.151C297.358 198.675 296.854 199.001 296.28 199.001L296.281 199ZM268.975 122.9C268.988 122.9 269.001 122.902 269.015 122.904C269.132 122.923 269.217 123.028 269.213 123.147L267.029 195.099C267.002 196.005 267.333 196.862 267.961 197.512C268.59 198.163 269.434 198.522 270.338 198.522H296.281C296.666 198.522 297.003 198.303 297.162 197.952C297.321 197.6 297.263 197.201 297.01 196.912L293.073 192.391C292.338 191.547 291.891 190.466 291.817 189.347L287.139 93.1211L256.577 96.4073L224.454 189.36C224.072 190.397 223.386 191.264 222.47 191.871L215.124 196.74C214.682 197.034 214.631 197.495 214.731 197.83C214.831 198.165 215.128 198.522 215.658 198.522H242.763C244.219 198.522 245.488 197.585 245.923 196.192L268.748 123.068C268.78 122.967 268.873 122.9 268.976 122.9H268.975Z" fill="black"/>
<path d="M268.975 123.379C268.844 123.379 268.736 123.272 268.736 123.141L268.719 118.604C268.719 118.471 268.825 118.365 268.956 118.364C269.087 118.364 269.195 118.47 269.195 118.602L269.212 123.139C269.212 123.271 269.106 123.378 268.975 123.379Z" fill="black"/>
<path d="M267.653 193.551C267.526 193.551 267.42 193.45 267.415 193.32C267.411 193.189 267.514 193.078 267.645 193.072C275.215 192.799 282.875 192.348 290.414 191.732C290.544 191.724 290.66 191.819 290.671 191.95C290.681 192.082 290.584 192.197 290.453 192.208C282.907 192.824 275.238 193.276 267.662 193.55C267.659 193.55 267.657 193.55 267.653 193.55V193.551Z" fill="black"/>
<path d="M246.014 193.159H246.011C238.884 193.057 231.701 192.44 224.66 191.324C224.53 191.303 224.441 191.181 224.462 191.05C224.483 190.919 224.605 190.83 224.735 190.851C231.753 191.963 238.913 192.579 246.018 192.68C246.149 192.682 246.255 192.791 246.253 192.922C246.251 193.053 246.145 193.158 246.015 193.158L246.014 193.159Z" fill="black"/>
<path d="M269.755 57.5044L269.32 51.6921C269.32 51.6921 270.933 44.5564 276.405 49.8848L277.407 57.835C277.407 57.835 278.364 61.7465 273.772 61.7356C269.871 61.7269 269.756 57.5044 269.756 57.5044H269.755Z" fill="white"/>
<path d="M269.715 56.7965C269.588 56.7965 269.482 56.6954 269.476 56.5671L269.274 51.7019C269.274 51.6823 269.274 51.6639 269.278 51.6454C269.304 51.5149 269.94 48.4331 272.013 47.7861C273.309 47.3826 274.842 48.0307 276.569 49.713C276.608 49.7511 276.633 49.8011 276.64 49.8544L277.296 55.0545C277.312 55.185 277.22 55.3046 277.089 55.322C276.958 55.3372 276.838 55.2459 276.822 55.1143L276.177 49.9979C274.61 48.4896 273.257 47.9003 272.155 48.2417C270.445 48.7745 269.816 51.417 269.751 51.7117L269.952 56.5464C269.958 56.678 269.856 56.79 269.725 56.7954C269.721 56.7954 269.718 56.7954 269.715 56.7954V56.7965Z" fill="black"/>
<path d="M271.047 42.5175C268.198 41.8716 267.297 41.0625 267.297 41.0625C267.297 41.0625 266.369 40.4209 266.707 38.5179C267.045 36.6149 270.5 33.8963 274.487 37.6599C278.476 41.4235 283.243 44.9697 279.559 45.5253C279.559 45.5253 281.571 49.1715 276.372 48.494L274.507 50.6841C274.507 50.6841 271.87 56.043 267.318 54.5619C262.767 53.0808 264.19 51.2159 264.742 49.4118C264.904 48.8833 265.19 47.9481 265.514 46.889C266.482 47.2717 267.69 47.8742 269.248 48.7267C272.62 50.571 273.897 43.1613 271.047 42.5164V42.5175Z" fill="black"/>
<path d="M271.047 42.5175C273.897 43.1634 275.825 43.7158 274.804 46.2528C273.782 48.7898 272.62 50.5721 269.248 48.7278C267.691 47.8763 266.482 47.2728 265.514 46.89C266.295 44.3346 267.297 41.0625 267.297 41.0625C267.297 41.0625 268.198 41.8715 271.047 42.5175Z" fill="white"/>
<path d="M267.567 41.8096C268.142 42.1282 269.19 42.586 270.942 42.9829C272.709 43.3831 274.092 43.7485 274.481 44.4955C274.676 44.8707 274.637 45.3861 274.36 46.0734C273.611 47.9329 272.929 49.0095 271.652 49.0095C271.058 49.0095 270.326 48.7735 269.474 48.3081C268.059 47.5338 266.971 46.9879 266.096 46.6138L267.566 41.8107L267.567 41.8096ZM267.297 41.0625C267.297 41.0625 266.295 44.3357 265.514 46.89C266.482 47.2728 267.69 47.8753 269.248 48.7278C270.216 49.2574 271 49.4879 271.653 49.4879C273.274 49.4879 274.074 48.0623 274.803 46.2528C275.825 43.7147 273.897 43.1623 271.046 42.5175C268.196 41.8715 267.296 41.0625 267.296 41.0625H267.297Z" fill="black"/>
<path d="M274.507 48.6908C274.507 48.6908 276.81 46.3452 277.664 47.9644C278.518 49.5836 275.832 51.7367 274.264 49.8337L274.507 48.6908Z" fill="white"/>
<path d="M275.722 50.8211C275.168 50.8211 274.583 50.5949 274.081 49.9859C274.034 49.9294 274.016 49.8554 274.031 49.7837L274.274 48.6408C274.283 48.5962 274.305 48.5549 274.337 48.5222C274.397 48.4603 275.846 47.002 276.974 47.1684C277.363 47.226 277.665 47.4555 277.874 47.8513C278.382 48.8137 277.828 49.8663 277.017 50.4089C276.659 50.6482 276.202 50.82 275.721 50.82L275.722 50.8211ZM274.522 49.7674C275.245 50.5634 276.141 50.422 276.753 50.0131C277.384 49.589 277.829 48.7887 277.453 48.0775C277.317 47.8198 277.137 47.6784 276.904 47.6436C276.196 47.537 275.135 48.4092 274.725 48.8115L274.522 49.7684V49.7674Z" fill="black"/>
<path d="M275.274 49.5727C275.203 49.5727 275.132 49.5412 275.086 49.4803C275.005 49.3759 275.025 49.2258 275.129 49.1453C275.542 48.8245 276.061 48.6582 276.578 48.6712C276.709 48.6745 276.813 48.7843 276.81 48.917C276.807 49.0486 276.695 49.1443 276.565 49.1497C276.163 49.1377 275.741 49.2747 275.419 49.5248C275.376 49.5586 275.325 49.5749 275.274 49.5749V49.5727Z" fill="black"/>
<path d="M241.332 60.2067C239.254 54.9979 237.672 49.526 234.672 44.7913C234.408 44.3748 234.119 43.9496 233.694 43.6984C233.271 43.4472 232.674 43.4201 232.322 43.7659C231.967 44.116 231.982 44.6891 232.055 45.185C232.282 46.74 232.854 48.5114 233.669 49.8533C233.669 49.8533 231.564 49.2052 230.773 51.1049C230.773 51.1049 229.517 50.7504 228.963 53.2428C228.963 53.2428 227.464 54.6772 228.555 56.4149C229.339 57.6643 230.214 57.7426 230.214 57.7426C230.214 57.7426 231.679 64.7457 233.35 67.5502C235.02 70.3547 242.45 63.0101 241.331 60.2057L241.332 60.2067Z" fill="white"/>
<path d="M233.2 67.3359C233.107 67.3359 233.018 67.2805 232.98 67.1891C231.795 64.3379 230.283 58.8942 230.023 57.9481C229.705 57.8611 228.994 57.561 228.353 56.5432C227.296 54.8609 228.473 53.4222 228.745 53.1265C228.989 52.0727 229.39 51.3724 229.939 51.044C230.212 50.8798 230.46 50.8396 230.627 50.8494C231.261 49.5488 232.502 49.4607 233.21 49.5303C232.548 48.2928 232.037 46.7204 231.817 45.2208C231.746 44.7358 231.703 44.0399 232.153 43.5962C232.606 43.1504 233.331 43.2069 233.814 43.494C234.28 43.7702 234.592 44.2237 234.87 44.6641C236.999 48.0242 238.22 51.429 239.511 55.0349C239.96 56.292 240.426 57.5915 240.937 58.9007C240.985 59.0236 240.924 59.1628 240.801 59.2106C240.679 59.2585 240.54 59.1976 240.492 59.0747C239.98 57.7589 239.513 56.4562 239.062 55.1969C237.78 51.6171 236.569 48.2363 234.468 44.9207C234.21 44.5129 233.947 44.1291 233.571 43.905C233.253 43.7169 232.764 43.6636 232.487 43.9377C232.192 44.228 232.232 44.7696 232.289 45.1512C232.527 46.778 233.119 48.4897 233.872 49.7293C233.923 49.8141 233.918 49.9218 233.857 50.0001C233.796 50.0784 233.693 50.111 233.599 50.0817C233.522 50.0588 231.688 49.5238 230.992 51.1974C230.946 51.3094 230.824 51.3681 230.708 51.3355C230.702 51.3344 230.464 51.2789 230.169 51.4627C229.869 51.6497 229.458 52.1184 229.196 53.2961C229.187 53.3429 229.163 53.3842 229.128 53.4168C229.073 53.4701 227.785 54.7413 228.757 56.2876C229.46 57.4066 230.208 57.5023 230.239 57.5056C230.337 57.5164 230.42 57.586 230.445 57.6806C230.462 57.7426 232.138 63.9192 233.42 67.0043C233.471 67.1261 233.414 67.2663 233.292 67.3174C233.262 67.3305 233.232 67.3359 233.2 67.3359Z" fill="black"/>
<path d="M232.367 57.1565C231.868 57.1565 231.354 56.8836 231.004 56.417C230.657 55.9549 230.505 55.3872 230.391 54.8424C230.246 54.1508 230.097 53.2385 230.231 52.3196C230.279 51.9901 230.365 51.6726 230.484 51.3757C230.533 51.2528 230.673 51.1941 230.794 51.2441C230.916 51.2931 230.975 51.4333 230.926 51.5551C230.821 51.8161 230.746 52.0967 230.703 52.3892C230.579 53.233 230.72 54.091 230.857 54.7446C230.976 55.3122 231.11 55.7646 231.385 56.13C231.632 56.4584 232.082 56.7531 232.527 56.6639C232.731 56.6237 232.929 56.4682 233.033 56.267C233.082 56.1735 233.15 55.9875 233.068 55.8005C233.014 55.6798 233.068 55.5384 233.188 55.484C233.309 55.4307 233.449 55.484 233.504 55.6047C233.624 55.8755 233.608 56.1963 233.457 56.4866C233.286 56.8172 232.965 57.0652 232.619 57.1337C232.536 57.15 232.451 57.1576 232.367 57.1576V57.1565Z" fill="black"/>
<path d="M236.196 57.8177C235.809 57.8177 235.411 57.6198 235.159 57.337C234.847 56.988 234.697 56.5541 234.552 56.1354L234.482 55.9364C234.346 55.5558 234.141 55.0926 233.766 54.8816C233.553 54.762 233.293 54.725 233.018 54.6859C232.682 54.6369 232.334 54.5869 232.028 54.3836C231.708 54.1704 231.504 53.8203 231.455 53.3951C231.397 52.8883 231.57 52.3511 231.906 51.9923C232.591 51.2626 233.651 51.2126 234.222 51.2496C235.213 51.3126 236.167 51.6487 236.979 52.2207C237.086 52.2968 237.113 52.4457 237.037 52.5534C236.961 52.6611 236.813 52.6882 236.705 52.6121C235.965 52.0912 235.096 51.7846 234.193 51.727C233.706 51.6954 232.806 51.7324 232.254 52.3196C232.014 52.5752 231.886 52.9753 231.929 53.3396C231.961 53.6213 232.09 53.8507 232.292 53.9834C232.509 54.1269 232.789 54.1672 233.086 54.2106C233.393 54.2552 233.71 54.3009 233.999 54.4629C234.513 54.7511 234.767 55.3144 234.931 55.7733L235.003 55.9777C235.138 56.3692 235.266 56.7389 235.514 57.0173C235.766 57.299 236.224 57.4566 236.506 57.2413C236.611 57.1619 236.761 57.1826 236.84 57.2881C236.919 57.3936 236.898 57.5436 236.793 57.623C236.614 57.7589 236.406 57.8177 236.196 57.8177Z" fill="black"/>
<path d="M231.281 57.797C231.263 57.797 231.245 57.797 231.228 57.7959C230.858 57.7796 230.483 57.6056 230.171 57.3054C229.891 57.0379 229.695 56.7063 229.538 56.417C229.032 55.4807 228.781 54.6336 228.771 53.8257C228.77 53.6941 228.876 53.5853 229.007 53.5832H229.01C229.14 53.5832 229.247 53.6886 229.248 53.8191C229.257 54.5466 229.489 55.322 229.956 56.1876C230.095 56.4442 230.267 56.7356 230.499 56.9585C230.728 57.1782 230.993 57.3054 231.247 57.3163C231.515 57.3305 231.773 57.1945 231.88 56.9912C231.942 56.8748 232.086 56.8291 232.202 56.8922C232.318 56.9542 232.362 57.0988 232.302 57.2152C232.116 57.5664 231.71 57.7948 231.28 57.7948L231.281 57.797Z" fill="black"/>
<path d="M230.304 57.9209C230.205 57.9209 230.113 57.859 230.079 57.76C230.035 57.6349 230.101 57.499 230.225 57.4555C230.338 57.4164 230.445 57.3544 230.535 57.2761C230.635 57.1891 230.785 57.2011 230.871 57.3011C230.957 57.4011 230.946 57.5523 230.846 57.6382C230.709 57.7567 230.553 57.847 230.382 57.9068C230.356 57.9155 230.33 57.9198 230.303 57.9198L230.304 57.9209Z" fill="black"/>
<path d="M257.381 75.9984C257.381 75.9984 238.988 87.5339 233.351 67.5513C236.291 65.8625 240.061 63.4245 241.021 59.4053C241.021 59.4053 243.58 65.0426 246.471 63.9301C253.487 61.2279 258.187 58.7289 267.503 58.1026C268.409 58.0406 269.005 58.058 269.005 58.058L269.5 56.1169L271.356 58.1385L273.132 56.4627L277.469 55.3992L278.385 58.1232C278.385 58.1232 277.914 58.0765 278.985 58.1831C285.718 58.7202 289.957 59.5391 293.515 63.8953C298.098 69.5087 301.919 80.0698 300.806 86.7368C299.693 93.4039 296.637 95.4678 292.739 96.7521C292.739 96.7521 291.401 97.2219 288.98 97.2219C288.85 99.4946 288.83 101.659 288.656 106.32L253.903 100.475L257.384 75.9995L257.381 75.9984Z" fill="#1FACCA"/>
<path d="M257.455 75.9484C257.43 75.9484 257.404 75.9441 257.379 75.9364C257.255 75.8951 257.187 75.7592 257.229 75.6341L258.067 73.1178C258.109 72.9928 258.243 72.9264 258.368 72.9667C258.492 73.008 258.56 73.1439 258.518 73.269L257.681 75.7842C257.647 75.8842 257.554 75.9473 257.454 75.9473L257.455 75.9484Z" fill="black"/>
<path d="M273.002 60.7809C272.904 60.7809 272.81 60.7178 272.777 60.6199L272.35 59.3781C272.306 59.253 272.373 59.1171 272.497 59.0736C272.622 59.0312 272.757 59.0964 272.801 59.2215L273.154 60.2469C274.872 59.7282 276.522 58.9986 278.061 58.0753C278.174 58.0079 278.32 58.0449 278.388 58.158C278.455 58.2711 278.418 58.419 278.306 58.4864C276.667 59.4705 274.905 60.2382 273.07 60.7722C273.048 60.7787 273.025 60.782 273.003 60.782L273.002 60.7809Z" fill="black"/>
<path d="M269.944 60.0969C269.871 60.0969 269.8 60.0632 269.753 60.0012L268.759 58.668C268.68 58.5625 268.702 58.4125 268.807 58.3331C268.912 58.2537 269.061 58.2755 269.14 58.3809L270.134 59.7141C270.214 59.8196 270.192 59.9697 270.087 60.0491C270.043 60.0817 269.993 60.0969 269.944 60.0969Z" fill="black"/>
<path d="M264.134 80.6689L270.371 60.6917L270.207 58.4832L271.179 58.8377L272.486 58.5245L271.718 60.9353L270.914 82.6285L264.134 80.6689Z" fill="white"/>
<path d="M256.907 65.1578H272.6C272.825 65.1578 273.022 65.3057 273.086 65.521L279.048 85.6722C279.145 85.9974 278.901 86.3247 278.563 86.3247H262.869C262.645 86.3247 262.448 86.1768 262.384 85.9615L256.421 65.8103C256.325 65.4851 256.567 65.1578 256.907 65.1578Z" fill="black"/>
<path d="M264.965 80.8505C264.291 80.1991 263.879 79.4901 264.31 78.7964C264.74 78.1026 265.823 77.9405 266.436 78.4788C265.982 78.12 265.515 77.7459 265.239 77.237C264.962 76.727 264.924 76.0397 265.306 75.6037C265.641 75.2198 266.215 75.1241 266.712 75.235C266.956 75.2894 267.187 75.3862 267.41 75.5036C267.194 75.1796 267.135 74.7207 267.317 74.3651C267.628 73.7594 268.39 73.5006 269.066 73.5767C269.741 73.6528 270.353 73.9953 270.945 74.3303C274.905 76.566 282.729 81.1082 282.729 81.1082C283.166 84.2988 280.403 90.7885 277.252 92.8568C276.243 92.5524 268.679 86.4736 265.812 84.0062C265.332 83.593 264.836 83.1548 264.593 82.5687C264.349 81.9825 264.439 81.2039 264.965 80.8505Z" fill="white"/>
<path d="M272.055 78.7584C272.013 78.7584 271.969 78.7464 271.93 78.7225C270.48 77.8275 269.028 76.8912 267.612 75.9386C267.503 75.8658 267.474 75.7168 267.547 75.607C267.621 75.4971 267.768 75.4678 267.878 75.5417C269.289 76.4911 270.736 77.4241 272.181 78.3158C272.292 78.3854 272.328 78.5322 272.259 78.6453C272.214 78.7181 272.135 78.7594 272.055 78.7594V78.7584Z" fill="black"/>
<path d="M270.221 81.4834C270.173 81.4834 270.125 81.4693 270.082 81.4389L266.345 78.7583C266.238 78.6811 266.213 78.5322 266.29 78.4245C266.366 78.3168 266.515 78.2918 266.623 78.369L270.36 81.0496C270.467 81.1268 270.492 81.2757 270.415 81.3834C270.369 81.4487 270.295 81.4834 270.221 81.4834Z" fill="black"/>
<path d="M268.468 83.7181C268.423 83.7181 268.376 83.7051 268.335 83.6768C267.193 82.9014 266.072 82.0619 265.006 81.1822C264.904 81.0985 264.89 80.9473 264.973 80.8451C265.056 80.7429 265.207 80.7288 265.309 80.8125C266.365 81.6824 267.473 82.5132 268.604 83.281C268.713 83.3549 268.742 83.5039 268.668 83.6126C268.621 83.6811 268.547 83.7181 268.471 83.7181H268.468Z" fill="black"/>
<path d="M288.79 97.4545H288.785C284.619 97.3556 280.509 95.9604 277.211 93.5256C277.105 93.4473 277.082 93.2973 277.16 93.1907C277.238 93.0841 277.388 93.0624 277.494 93.1396C280.714 95.5156 284.728 96.8782 288.797 96.975C288.928 96.9782 289.032 97.0881 289.03 97.2196C289.026 97.3501 288.92 97.4534 288.791 97.4534L288.79 97.4545Z" fill="black"/>
<path d="M291.563 86.4932C291.523 86.4932 291.481 86.4834 291.443 86.4617L283.047 81.5943C282.933 81.528 282.894 81.3823 282.96 81.267C283.026 81.1528 283.171 81.1137 283.286 81.1789L291.683 86.0463C291.797 86.1126 291.836 86.2583 291.77 86.3736C291.725 86.4508 291.645 86.4932 291.563 86.4932Z" fill="black"/>
<path d="M288.873 84.3325C288.762 84.3325 288.662 84.2542 288.639 84.1411L286.38 73.0808C286.354 72.9514 286.436 72.8253 286.565 72.7981C286.694 72.7709 286.82 72.8546 286.847 72.984L289.107 84.0443C289.133 84.1737 289.05 84.2999 288.921 84.327C288.905 84.3303 288.889 84.3325 288.874 84.3325H288.873Z" fill="black"/>
<path d="M280.403 94.7501C280.338 94.7501 280.272 94.7229 280.225 94.6707C280.137 94.5717 280.146 94.4206 280.245 94.3325C283.231 91.6574 285.078 87.8209 285.312 83.8062C285.32 83.6746 285.43 83.5724 285.564 83.5811C285.696 83.5887 285.796 83.7018 285.789 83.8333C285.547 87.9732 283.643 91.9304 280.562 94.6892C280.517 94.7294 280.46 94.7501 280.404 94.7501H280.403Z" fill="black"/>
<path d="M235.304 69.9045C235.191 69.9045 235.092 69.824 235.07 69.7087C235.046 69.5793 235.131 69.4543 235.261 69.4293C238.84 68.7594 241.542 66.2964 242.312 63.0036C242.343 62.8753 242.471 62.7959 242.598 62.8253C242.726 62.8557 242.807 62.9841 242.776 63.1124C241.961 66.5921 239.115 69.1933 235.347 69.899C235.332 69.9012 235.318 69.9034 235.303 69.9034L235.304 69.9045Z" fill="black"/>
<path d="M52.8818 73.6387L114.987 73.6387V22.027L52.8818 22.027L52.8818 73.6387Z" fill="#E2EAFF"/>
<path d="M31.9987 118.715C31.9987 118.715 26.433 140.162 22.8551 148.362C20.1216 154.626 9.84856 170.121 5.15428 177.084C3.77342 179.132 3.98261 181.863 5.65937 183.676L14.9818 193.753C17.866 196.871 21.9132 198.641 26.1523 198.641H28.7644C30.025 198.641 30.8075 197.264 30.1648 196.176L27.493 191.648C27.493 191.648 46.0523 159.182 48.582 151.776C51.1118 144.371 49.4145 116.493 49.4145 116.493L31.9987 118.714V118.715Z" fill="white"/>
<path d="M28.7655 198.88H26.1534C21.8623 198.88 17.7273 197.071 14.8084 193.915L5.48596 183.838C3.72357 181.934 3.5068 179.101 4.95811 176.949C9.35757 170.425 19.8875 154.569 22.6383 148.265C26.1674 140.177 31.7136 118.868 31.77 118.654C31.7949 118.559 31.8741 118.49 31.9705 118.477L49.3863 116.256C49.4513 116.248 49.5174 116.267 49.5684 116.31C49.6193 116.352 49.6508 116.413 49.654 116.479C49.7234 117.619 51.3264 144.488 48.8097 151.854C46.3796 158.968 29.0159 189.463 27.7705 191.646L30.3718 196.053C30.7176 196.639 30.723 197.343 30.387 197.934C30.051 198.526 29.4451 198.879 28.7655 198.879V198.88ZM32.1895 118.932C31.6746 120.902 26.4579 140.704 23.0741 148.458C20.308 154.798 9.75861 170.683 5.35156 177.219C4.02598 179.185 4.22433 181.774 5.83389 183.514L15.1563 193.591C17.9852 196.649 21.9934 198.403 26.1523 198.403H28.7644C29.2695 198.403 29.7215 198.14 29.9719 197.699C30.2222 197.259 30.2179 196.736 29.9599 196.299L27.2882 191.771C27.2448 191.697 27.2437 191.604 27.286 191.53C27.4713 191.205 45.8626 159 48.3566 151.7C50.714 144.799 49.3527 119.585 49.1912 116.764L32.1884 118.932H32.1895Z" fill="black"/>
<path d="M25.878 190.981C25.8379 190.981 25.7967 190.972 25.7588 190.949C18.7396 186.874 12.4509 181.722 7.0684 175.635C6.98061 175.537 6.99036 175.385 7.08899 175.297C7.18763 175.209 7.33829 175.218 7.425 175.317C12.7739 181.365 19.0225 186.484 25.9972 190.533C26.1111 190.6 26.1501 190.745 26.084 190.86C26.0395 190.936 25.9593 190.979 25.8769 190.979L25.878 190.981Z" fill="black"/>
<path d="M34.3908 178.233C34.3626 178.233 34.3334 178.228 34.3052 178.217C26.4514 175.204 19.2447 170.373 13.4633 164.248C13.3723 164.152 13.3766 164.001 13.472 163.91C13.5673 163.819 13.718 163.823 13.8091 163.919C19.5417 169.993 26.6877 174.783 34.4754 177.77C34.5978 177.817 34.6596 177.956 34.613 178.079C34.5762 178.175 34.4862 178.232 34.3908 178.232V178.233Z" fill="black"/>
<path d="M42.3172 119.795L47.9306 195.206C48.0748 197.144 49.6833 198.641 51.6201 198.641H79.6514C80.6724 198.641 81.1244 197.353 80.3288 196.711L74.2331 191.796L65.613 114.1L42.3183 119.794L42.3172 119.795Z" fill="white"/>
<path d="M79.6503 198.88H51.6191C49.5695 198.88 47.845 197.274 47.6922 195.223L42.0788 119.812C42.0701 119.696 42.1471 119.59 42.2598 119.562L65.5545 113.868C65.6206 113.853 65.6911 113.865 65.7474 113.905C65.8038 113.944 65.8396 114.006 65.8471 114.075L74.4564 191.673L80.4752 196.526C80.9174 196.883 81.0821 197.46 80.8935 197.997C80.7049 198.535 80.2161 198.882 79.6493 198.882L79.6503 198.88ZM42.5698 119.979L48.168 195.189C48.3024 196.99 49.8187 198.402 51.6191 198.402H79.6503C80.0904 198.402 80.3494 198.111 80.4448 197.838C80.5402 197.565 80.5207 197.174 80.1782 196.898L74.0825 191.983C74.0337 191.944 74.0022 191.886 73.9947 191.823L65.4038 114.398L42.5687 119.98L42.5698 119.979Z" fill="black"/>
<path d="M49.0405 193.277C48.9115 193.277 48.8053 193.174 48.802 193.043C48.7988 192.91 48.9028 192.802 49.0351 192.798C57.3289 192.606 65.7268 192.175 73.9946 191.519C74.1269 191.511 74.2407 191.607 74.2515 191.738C74.2623 191.87 74.1637 191.985 74.0326 191.996C65.7561 192.653 57.3484 193.084 49.0459 193.277H49.0405Z" fill="black"/>
<path d="M53.2872 181.644C51.4142 181.644 49.5435 181.596 47.6738 181.499C47.5426 181.492 47.4407 181.379 47.4483 181.248C47.4548 181.115 47.5708 181.012 47.6987 181.022C55.9459 181.448 64.2495 180.928 72.3808 179.475C72.5108 179.452 72.6344 179.538 72.6572 179.669C72.6799 179.799 72.5943 179.923 72.4642 179.946C66.1409 181.076 59.7124 181.645 53.2882 181.645L53.2872 181.644Z" fill="black"/>
<path d="M60.5047 70.3546L58.2178 75.4927L59.5932 76.0365C59.5932 76.0365 56.8813 81.1072 50.5439 80.4721C44.2065 79.837 53.1441 69.0823 53.1441 69.0823C53.1441 69.0823 58.9277 67.8003 60.5047 70.3546Z" fill="white"/>
<path d="M51.6147 80.7657C51.2614 80.7657 50.8972 80.7483 50.52 80.7103C49.3256 80.5906 48.5517 80.1143 48.2168 79.2955C46.9573 76.2061 52.7149 69.2259 52.9598 68.9301C52.9934 68.8899 53.04 68.8616 53.091 68.8496C53.3338 68.7964 59.0588 67.5621 60.7052 70.2296C60.7464 70.297 60.7529 70.3807 60.7204 70.4536L58.5353 75.3633L59.6788 75.8157C59.7417 75.8407 59.7915 75.8918 59.8154 75.956C59.8392 76.0202 59.8338 76.0908 59.8013 76.1517C59.7753 76.2007 57.2628 80.7679 51.6126 80.7679L51.6147 80.7657ZM53.2752 69.2998C52.6965 70.0121 47.5665 76.4345 48.659 79.1139C48.9246 79.7653 49.5489 80.1317 50.5677 80.234C55.9015 80.7712 58.6198 77.1228 59.2431 76.155L58.1299 75.7146C58.0692 75.6907 58.0215 75.6428 57.9966 75.5819C57.9717 75.521 57.9728 75.4536 57.9999 75.3938L60.2337 70.3764C58.7716 68.2853 53.9538 69.1639 53.2752 69.2998Z" fill="black"/>
<path d="M43.2027 75.4927C43.2027 75.4927 53.4692 74.0595 61.723 76.5987L68.7953 135.032C68.7953 135.032 61.6894 137.156 61.3057 128.425C61.3057 128.425 58.997 137.418 43.8823 136.356C28.7676 135.296 27.1071 132.39 27.1071 132.39L43.2027 75.4938V75.4927Z" fill="#1FACCA"/>
<path d="M52.6488 70.9592L45.3922 54.402C45.3922 54.402 50.9167 41.5257 52.7777 39.8467C54.6388 38.1677 56.6721 35.0642 56.9604 31.9194C57.2487 28.7745 54.396 32.8208 53.8194 33.5962C53.2427 34.3726 52.7929 31.4148 52.7929 31.4148V23.8713C52.7929 23.8713 51.5356 24.1051 51.2267 25.1979C51.1151 25.5916 50.8571 26.6453 50.5731 27.8317C49.8632 30.796 48.4195 33.532 46.3753 35.7874C43.2841 39.1965 39.4894 44.9555 37.0268 48.0525C29.2457 57.835 39.5533 76.2159 39.5533 76.2159L52.6509 70.9571L52.6488 70.9592Z" fill="white"/>
<path d="M39.5523 76.4573C39.4688 76.4573 39.3875 76.4127 39.3442 76.3355C39.3181 76.2888 36.7342 71.6476 35.1409 65.869C33.0208 58.1798 33.6083 51.9673 36.8393 47.9057C37.7563 46.753 38.8683 45.2154 40.0465 43.5886C42.0181 40.8635 44.2541 37.7741 46.1986 35.6297C48.2092 33.4113 49.6421 30.6971 50.3412 27.7784C50.6772 26.3735 50.8983 25.484 50.9969 25.1349C51.3427 23.9137 52.6921 23.6495 52.7496 23.6386C52.82 23.6266 52.8905 23.6451 52.9457 23.6897C52.9999 23.7354 53.0314 23.8028 53.0314 23.8735V31.3985C53.1777 32.3489 53.4422 33.2656 53.621 33.4646C53.6232 33.4614 53.6253 33.4581 53.6286 33.4548L53.7424 33.3004C55.3433 31.119 56.2267 30.3176 56.7979 30.5351C57.2563 30.7102 57.2455 31.4224 57.1978 31.9422C56.9052 35.1338 54.8469 38.3015 52.9371 40.0251C51.2191 41.5758 46.1618 53.2222 45.6523 54.402L52.8666 70.8636C52.8926 70.9234 52.8937 70.9897 52.8688 71.0506C52.8439 71.1104 52.7962 71.1583 52.7366 71.1822L39.639 76.441C39.6097 76.453 39.5804 76.4584 39.5501 76.4584L39.5523 76.4573ZM52.5545 24.1932C52.2055 24.3237 51.6353 24.6292 51.4554 25.2643C51.3579 25.6068 51.1389 26.4898 50.804 27.8883C50.0865 30.8842 48.6146 33.6723 46.5498 35.9494C44.6227 38.0743 42.3953 41.1528 40.4313 43.8681C39.2509 45.5003 38.1356 47.0412 37.2111 48.2026C30.0315 57.2294 38.6201 73.9736 39.6585 75.9158L52.3301 70.8277L45.1733 54.4966C45.1462 54.4357 45.1462 54.3672 45.1733 54.3063C45.3998 53.7789 50.7401 41.3626 52.6184 39.6673C54.4599 38.0057 56.4423 34.9588 56.7231 31.8955C56.7989 31.0679 56.6299 30.9798 56.6277 30.9788C56.5182 30.9374 56.0175 31.0038 54.1261 33.581L54.0112 33.7376C53.8291 33.9833 53.6308 33.9768 53.53 33.9518C52.9956 33.818 52.691 32.3272 52.5577 31.4496C52.5556 31.4377 52.5545 31.4257 52.5545 31.4137V24.191V24.1932Z" fill="black"/>
<path d="M62.3375 91.8086C62.3375 91.8086 61.2016 95.4222 57.8394 95.4222C53.479 95.4222 51.7751 87.3425 54.3895 81.5987C56.0098 78.0396 58.7239 74.3869 63.9026 77.2262C69.0814 80.0654 76.4995 84.1825 76.4995 84.1825C76.4995 84.1825 92.6395 73.4908 95.7741 70.9593C98.9087 68.4278 100.816 67.0174 101.43 68.816C102.043 70.6157 98.125 72.2272 98.3581 73.7692H109.676C109.676 73.7692 111.494 76.6379 102.457 77.5959C101.227 77.7264 100.056 78.1896 99.1244 79.0063C95.2798 82.3762 85.4502 90.9452 82.0695 93.4713C77.8294 96.6401 71.4703 98.418 62.3386 91.8086H62.3375Z" fill="white"/>
<path d="M73.9762 96.5357C70.7029 96.5357 67.2161 95.333 63.5407 92.9286C63.4301 92.8569 63.3998 92.7079 63.4713 92.5981C63.5428 92.4872 63.6913 92.4567 63.8008 92.5285C70.5696 96.9576 76.6675 97.2099 81.9254 93.2799C85.2822 90.7712 94.9601 82.336 98.9651 78.8257C99.8994 78.0069 101.098 77.4991 102.43 77.3577C107.78 76.7901 109.135 75.5515 109.467 74.8631C109.65 74.4825 109.583 74.1672 109.524 74.0084H98.357C98.2389 74.0084 98.1391 73.9225 98.1218 73.8051C97.995 72.9678 98.8122 72.2055 99.6782 71.3986C100.566 70.5711 101.484 69.7142 101.204 68.8942C101.084 68.543 100.915 68.3396 100.686 68.2733C99.8658 68.0352 98.1196 69.3727 95.9237 71.1463C92.8162 73.6561 76.7922 84.276 76.6307 84.3825C76.557 84.4315 76.4616 84.4358 76.3835 84.3923C76.3098 84.351 68.9069 80.2438 63.7878 77.4371C62.4557 76.7063 60.9773 76.3334 59.5173 76.3497C59.3883 76.3605 59.2778 76.2453 59.2756 76.1137C59.2734 75.9821 59.3797 75.8734 59.5108 75.8712C61.0542 75.8516 62.6118 76.2474 64.0154 77.0173C68.7671 79.6228 75.485 83.3484 76.4865 83.9041C77.9747 82.9167 92.6753 73.1548 95.6224 70.7744C98.1543 68.7289 99.7671 67.5067 100.816 67.8144C101.2 67.9253 101.482 68.2374 101.653 68.7398C102.032 69.8533 101 70.8168 100 71.7487C99.3466 72.3577 98.6735 72.9862 98.5922 73.53H109.673C109.754 73.53 109.83 73.5713 109.874 73.6409C109.891 73.667 110.273 74.2857 109.895 75.0708C109.23 76.453 106.735 77.3827 102.479 77.834C101.246 77.9645 100.138 78.4321 99.2783 79.1868C95.269 82.7003 85.5792 91.1453 82.2094 93.6638C79.6471 95.5798 76.8951 96.5368 73.9752 96.5368L73.9762 96.5357Z" fill="black"/>
<path d="M66.4433 93.8889C66.3826 93.8889 66.3219 93.8661 66.2753 93.8193C66.182 93.7258 66.182 93.5746 66.2753 93.4811C69.3871 90.3482 71.2351 86.0148 71.3467 81.5933C71.35 81.4606 71.4562 81.3475 71.5906 81.3606C71.7217 81.3638 71.8258 81.4737 71.8226 81.6063C71.7087 86.1496 69.8098 90.6005 66.6123 93.8204C66.5657 93.8671 66.505 93.8911 66.4433 93.8911V93.8889Z" fill="black"/>
<path d="M62.0709 91.5607C62.0297 91.5607 61.9885 91.5498 61.9506 91.5281L60.6402 90.756C60.4169 90.6255 60.1871 90.4896 59.9498 90.4711C59.7763 90.4591 59.5552 90.5407 59.5086 90.7005C59.4707 90.8267 59.3385 90.8995 59.2116 90.8615C59.0859 90.8234 59.0133 90.6908 59.0512 90.5646C59.1737 90.1525 59.6116 89.9665 59.9866 89.9948C60.3324 90.022 60.6369 90.2003 60.8808 90.3439L62.1912 91.1159C62.305 91.1823 62.343 91.3291 62.2758 91.4433C62.2313 91.5194 62.1522 91.5618 62.0698 91.5618L62.0709 91.5607Z" fill="black"/>
<path d="M78.5177 85.4026C78.483 85.4026 78.4461 85.395 78.4125 85.3776L76.4063 84.3902C76.2881 84.3325 76.2394 84.189 76.2968 84.0705C76.3543 83.9519 76.4973 83.903 76.6155 83.9606L78.6217 84.948C78.7399 85.0057 78.7886 85.1492 78.7312 85.2677C78.69 85.3525 78.6055 85.4015 78.5166 85.4015L78.5177 85.4026Z" fill="black"/>
<path d="M61.9127 59.8098C62.4199 59.0552 63.0367 58.2505 62.937 57.3457C62.7755 55.8799 60.9405 55.3111 59.4707 55.3253C54.2107 55.3775 49.434 58.4288 45.5353 61.9727C41.6366 65.5156 38.2614 69.6663 33.979 72.7318C30.8997 74.9349 27.3912 76.5454 24.5742 79.078C21.7572 81.6107 19.6675 85.4852 20.6635 89.1455C21.5241 92.311 24.5633 94.5457 27.7716 95.184C30.9788 95.8223 34.3128 95.1003 37.3791 93.9585C48.0824 89.9708 54.8621 79.7359 57.8395 68.6833C58.2503 67.1587 59.6192 66.6182 59.8587 65.0795C60.1514 63.2015 60.8527 61.3866 61.9127 59.8109V59.8098Z" fill="black"/>
<path d="M48.2504 58.2776C48.6634 57.7296 48.7284 56.9749 48.5593 56.3083C48.3891 55.6428 48.0109 55.0501 47.6001 54.4999C46.682 53.2722 45.5711 52.1902 44.3192 51.3072C43.3979 50.6569 42.3834 50.1078 41.2789 49.8838C40.1755 49.6587 38.9702 49.7859 38.024 50.4003C36.8166 51.1854 36.1814 52.722 36.3635 54.1541C36.5456 55.5863 37.4886 56.8716 38.7383 57.585C39.988 58.2983 41.4664 58.4625 42.8971 58.6104C44.2715 58.7539 47.2261 59.6337 48.2493 58.2766L48.2504 58.2776Z" fill="black"/>
<path d="M61.1854 61.0354C61.1854 61.0354 58.002 62.1989 58.2979 63.792C58.5938 65.3851 58.6036 66.1898 57.8611 66.8684C57.8611 66.8684 55.0853 65.9995 54.7808 67.9308C54.4762 69.8621 56.5366 70.5983 58.0671 70.0339C58.0671 70.0339 59.707 71.764 62.2671 70.4939C64.8283 69.2227 63.4008 65.0328 61.1854 61.0365V61.0354Z" fill="white"/>
<path d="M60.4299 71.1942C59.1737 71.1942 58.311 70.5624 58.0107 70.3047C57.0342 70.6146 55.9362 70.4471 55.2382 69.8718C54.6648 69.3988 54.4177 68.6963 54.5445 67.8916C54.6258 67.3784 54.8686 66.9912 55.2674 66.7433C56.102 66.2235 57.3723 66.4899 57.7929 66.5998C58.3565 66.0147 58.3326 65.2807 58.0628 63.8344C57.7333 62.063 60.9654 60.8592 61.103 60.8092C61.2125 60.769 61.3361 60.8146 61.3935 60.9179C63.4637 64.6522 64.2441 67.4153 63.7119 69.1302C63.4897 69.8447 63.0399 70.3742 62.3733 70.7059C61.6547 71.0626 61.0022 71.1931 60.4299 71.1931V71.1942ZM58.0671 69.7936C58.131 69.7936 58.1939 69.8197 58.2394 69.8686C58.3012 69.9327 59.7959 71.4519 62.1609 70.2786C62.7137 70.0045 63.0714 69.5826 63.2556 68.9899C63.7325 67.4534 62.9792 64.8088 61.0759 61.3344C60.1525 61.7107 58.3337 62.6861 58.531 63.7485C58.8421 65.4221 58.8421 66.2942 58.0194 67.0456C57.9565 67.1022 57.8687 67.1228 57.7885 67.0967C57.7734 67.0924 56.322 66.6487 55.5178 67.1511C55.2382 67.3251 55.0745 67.5926 55.0149 67.9678C54.9141 68.6061 55.0962 69.1378 55.5395 69.5032C56.1356 69.9936 57.1404 70.1198 57.9836 69.8088C58.0107 69.799 58.0378 69.7936 58.066 69.7936H58.0671Z" fill="black"/>
<path d="M57.8384 68.9214C57.7853 68.9214 57.7322 68.904 57.6877 68.8682C57.2737 68.531 56.6656 68.4408 56.1725 68.6452C56.05 68.6942 55.9113 68.6376 55.8614 68.5147C55.8115 68.3929 55.869 68.2527 55.9904 68.2026C56.6494 67.9297 57.4341 68.045 57.988 68.4963C58.0899 68.58 58.1061 68.73 58.0227 68.8334C57.9761 68.891 57.9067 68.9214 57.8373 68.9214H57.8384Z" fill="black"/>
<path d="M4.42925 163.605C4.2981 163.605 4.1908 163.499 4.1908 163.366V29.2476C4.1908 29.1149 4.29702 29.0083 4.42925 29.0083H36.8383C36.9694 29.0083 37.0767 29.1149 37.0767 29.2476C37.0767 29.3802 36.9705 29.4868 36.8383 29.4868H4.6677V163.365C4.6677 163.498 4.56148 163.604 4.42925 163.604V163.605Z" fill="black"/>
<path d="M32.3442 23.4699C32.8277 21.8673 31.9248 20.1749 30.3274 19.6898C28.73 19.2047 27.0432 20.1107 26.5597 21.7133C26.0762 23.3159 26.9792 25.0082 28.5765 25.4933C30.1739 25.9784 31.8607 25.0725 32.3442 23.4699Z" fill="white"/>
<path d="M29.4538 25.8657C27.6556 25.8657 26.1935 24.3976 26.1935 22.5947C26.1935 20.7917 27.6567 19.3237 29.4538 19.3237C31.2508 19.3237 32.7141 20.7917 32.7141 22.5947C32.7141 24.3976 31.2508 25.8657 29.4538 25.8657ZM29.4538 19.8011C27.919 19.8011 26.6693 21.0538 26.6693 22.5947C26.6693 24.1356 27.9179 25.3883 29.4538 25.3883C30.9896 25.3883 32.2383 24.1356 32.2383 22.5947C32.2383 21.0538 30.9896 19.8011 29.4538 19.8011Z" fill="black"/>
<path d="M22.2236 25.1709C23.6432 24.2905 24.0827 22.4223 23.2053 20.998C22.3278 19.5737 20.4656 19.1327 19.046 20.0131C17.6264 20.8934 17.1869 22.7617 18.0643 24.186C18.9418 25.6103 20.804 26.0512 22.2236 25.1709Z" fill="white"/>
<path d="M20.6343 25.8657C18.8361 25.8657 17.374 24.3976 17.374 22.5947C17.374 20.7917 18.8372 19.3237 20.6343 19.3237C22.4313 19.3237 23.8946 20.7917 23.8946 22.5947C23.8946 24.3976 22.4313 25.8657 20.6343 25.8657ZM20.6343 19.8011C19.0995 19.8011 17.8498 21.0538 17.8498 22.5947C17.8498 24.1356 19.0984 25.3883 20.6343 25.3883C22.1701 25.3883 23.4177 24.1356 23.4177 22.5947C23.4177 21.0538 22.169 19.8011 20.6343 19.8011Z" fill="black"/>
<path d="M14.6046 23.7536C15.2433 22.2066 14.5111 20.4331 12.9692 19.7924C11.4273 19.1516 9.65965 19.8862 9.02098 21.4332C8.38231 22.9801 9.11452 24.7536 10.6564 25.3943C12.1983 26.0351 13.966 25.3005 14.6046 23.7536Z" fill="#1FACCA"/>
</g>
<defs>
<filter id="filter0_d_113_15" x="0" y="0" width="305" height="207" filterUnits="userSpaceOnUse" color-interpolation-filters="sRGB">
<feFlood flood-opacity="0" result="BackgroundImageFix"/>
<feColorMatrix in="SourceAlpha" type="matrix" values="0 0 0 0 0 0 0 0 0 0 0 0 0 0 0 0 0 0 127 0" result="hardAlpha"/>
<feOffset dy="4"/>
<feGaussianBlur stdDeviation="2"/>
<feComposite in2="hardAlpha" operator="out"/>
<feColorMatrix type="matrix" values="0 0 0 0 0 0 0 0 0 0 0 0 0 0 0 0 0 0 0.25 0"/>
<feBlend mode="normal" in2="BackgroundImageFix" result="effect1_dropShadow_113_15"/>
<feBlend mode="normal" in="SourceGraphic" in2="effect1_dropShadow_113_15" result="shape"/>
</filter>
<clipPath id="clip0_113_15">
<rect width="297" height="199" fill="white" transform="translate(4)"/>
</clipPath>
</defs>
</svg>
